<?xml version="1.0" standalone="no"?><!DOCTYPE svg PUBLIC "-//W3C//DTD SVG 1.1//EN" "http://www.w3.org/Graphics/SVG/1.1/DTD/svg11.dtd"><svg t="1605431258972" class="icon" viewBox="0 0 1024 1024" version="1.1" xmlns="http://www.w3.org/2000/svg" p-id="1081" xmlns:xlink="http://www.w3.org/1999/xlink" width="200" height="200"><defs><style type="text/css"></style></defs><path d="M924.611765 256H763.482353c-45.176471 0-82.823529-37.647059-82.823529-84.329412V3.011765L924.611765 256z" fill="#6EA858" p-id="1082"></path><path d="M259.011765 415.623529c0-33.129412 24.094118-60.235294 55.717647-60.235294 30.117647 0 55.717647 27.105882 55.717647 60.235294s-24.094118 60.235294-55.717647 60.235295-55.717647-27.105882-55.717647-60.235295z m408.094117 13.552942l138.541177 281.6H228.894118c69.270588-64.752941 216.847059-204.8 216.847058-204.8l58.729412 109.929411 162.635294-186.729411z" fill="#FFFFFF" p-id="1083"></path><path d="M763.482353 256c-45.176471 0-82.823529-37.647059-82.823529-84.329412V3.011765H192.752941C171.670588 3.011765 150.588235 12.047059 135.529412 27.105882c-15.058824 16.564706-24.094118 37.647059-24.094118 60.235294v843.294118c0 22.588235 9.035294 43.670588 24.094118 58.729412s36.141176 24.094118 57.223529 24.094118H843.294118c21.082353 0 42.164706-9.035294 57.223529-24.094118s24.094118-36.141176 24.094118-58.729412V256H763.482353z m-448.752941 100.894118c30.117647 0 55.717647 27.105882 55.717647 60.235294s-24.094118 60.235294-55.717647 60.235294-55.717647-27.105882-55.717647-60.235294 25.6-60.235294 55.717647-60.235294z m-85.835294 355.388235c69.270588-64.752941 216.847059-204.8 216.847058-204.8l58.729412 109.929412 162.635294-186.729412 138.541177 281.6H228.894118z" fill="#9FD48C" p-id="1084"></path></svg>