<?xml version="1.0" standalone="no"?><!DOCTYPE svg PUBLIC "-//W3C//DTD SVG 1.1//EN"
        "http://www.w3.org/Graphics/SVG/1.1/DTD/svg11.dtd">
<svg t="1605431255636" class="icon" viewBox="0 0 924 1024" version="1.1" xmlns="http://www.w3.org/2000/svg" p-id="949"
     xmlns:xlink="http://www.w3.org/1999/xlink" width="200" height="250">
    <defs>
        <style type="text/css"></style>
    </defs>
    <path d="M918.588235 252.988235H757.458824c-45.176471 0-82.823529-37.647059-82.82353-84.329411V0L918.588235 252.988235z"
          fill="#7671B9" p-id="950"></path>
    <path d="M712.282353 433.694118l-85.835294 52.705882v-51.2c0-16.564706-12.047059-28.611765-28.611765-28.611765H344.847059c-15.058824 0-28.611765 12.047059-28.611765 28.611765v200.282353c0 15.058824 12.047059 28.611765 28.611765 28.611765h254.494117c15.058824 0 28.611765-12.047059 28.611765-28.611765v-52.705882l85.835294 52.705882c3.011765 1.505882 6.023529 1.505882 9.035294 0 3.011765-1.505882 4.517647-4.517647 4.517647-7.529412V441.223529c0-3.011765-1.505882-6.023529-4.517647-7.529411-4.517647-1.505882-7.529412-1.505882-10.541176 0z"
          fill="#FFFFFF" p-id="951"></path>
    <path d="M918.588235 252.988235H757.458824c-45.176471 0-82.823529-37.647059-82.82353-84.329411V0H188.235294C165.647059 0 144.564706 9.035294 129.505882 24.094118 114.447059 40.658824 105.411765 61.741176 105.411765 84.329412v843.294117c0 46.682353 36.141176 82.823529 81.317647 82.82353h650.541176c21.082353 0 42.164706-9.035294 58.729412-24.094118 15.058824-15.058824 24.094118-36.141176 24.094118-58.729412L918.588235 252.988235zM725.835294 627.952941c0 3.011765-1.505882 6.023529-4.517647 7.529412-3.011765 1.505882-6.023529 1.505882-9.035294 0l-85.835294-52.705882v52.705882c0 15.058824-12.047059 28.611765-28.611765 28.611765H344.847059c-15.058824 0-28.611765-12.047059-28.611765-28.611765V435.2c0-16.564706 12.047059-28.611765 28.611765-28.611765h254.494117c15.058824 0 28.611765 12.047059 28.611765 28.611765v51.2l85.835294-52.705882c3.011765-1.505882 6.023529-1.505882 9.035294 0 3.011765 1.505882 4.517647 4.517647 4.517647 7.529411v186.729412z"
          fill="#9894F1" p-id="952"></path>
</svg>
