<?xml version="1.0" standalone="no"?><!DOCTYPE svg PUBLIC "-//W3C//DTD SVG 1.1//EN" "http://www.w3.org/Graphics/SVG/1.1/DTD/svg11.dtd"><svg t="1569564072237" class="icon" viewBox="0 0 1024 1024" version="1.1" xmlns="http://www.w3.org/2000/svg" p-id="1082" xmlns:xlink="http://www.w3.org/1999/xlink" width="200" height="200"><defs><style type="text/css"></style></defs><path d="M512 597.333333a277.333333 277.333333 0 1 1 277.333333-277.333333 277.333333 277.333333 0 0 1-277.333333 277.333333z m0-469.333333a192 192 0 1 0 192 192 192 192 0 0 0-192-192z" fill="#4E4E4E" p-id="1083"></path><path d="M512 469.333333a149.333333 149.333333 0 0 1-105.6-42.666666 42.666667 42.666667 0 0 1 60.373333-60.373334 65.706667 65.706667 0 0 0 90.453334 0A42.666667 42.666667 0 0 1 618.666667 426.666667a149.333333 149.333333 0 0 1-106.666667 42.666666z" fill="#FF9813" p-id="1084"></path><path d="M832 981.333333H192a128 128 0 0 1-125.013333-155.733333A397.866667 397.866667 0 0 1 457.6 512h108.8a397.866667 397.866667 0 0 1 390.826667 313.6A128 128 0 0 1 832 981.333333zM457.6 597.333333A313.6 313.6 0 0 0 149.333333 844.16 42.666667 42.666667 0 0 0 192 896h640a42.666667 42.666667 0 0 0 42.666667-51.84A313.6 313.6 0 0 0 566.4 597.333333z" fill="#4E4E4E" p-id="1085"></path></svg>