<svg t="1605020520747" class="icon" viewBox="0 0 1024 1024" version="1.1" xmlns="http://www.w3.org/2000/svg" p-id="6370" width="200" height="200"><path d="M505 953c-15.5 0-38.8-7.2-94.8-60.2-37.4-35.5-78.8-81.9-116.5-130.6C235.2 686.5 137 542.2 137 425c0-49.7 9.7-97.9 28.9-143.3 18.5-43.8 45.1-83.2 78.9-117s73.1-60.3 117-78.9C407.1 66.7 455.3 57 505 57c49.7 0 97.9 9.7 143.3 28.9 43.8 18.5 83.2 45.1 117 78.9s60.3 73.1 78.9 117C863.3 327.1 873 375.3 873 425c0 117.2-98.2 261.5-156.7 337.2-37.7 48.8-79.1 95.2-116.5 130.6-56 53-79.3 60.2-94.8 60.2z m0-832c-167.6 0-304 136.4-304 304 0 69.2 49.4 174.1 135.5 287.8 34.1 45.1 72.3 89 107.6 123.7 32.4 31.9 52.3 46.1 61 51 8.7-4.9 28.6-19.1 61-51 35.2-34.7 73.4-78.6 107.6-123.7C759.6 599.1 809 494.2 809 425c0-167.6-136.4-304-304-304z" fill="#3688FF" p-id="6371"></path><path d="M505 569c-88.2 0-160-71.8-160-160s71.8-160 160-160 160 71.8 160 160-71.8 160-160 160z m0-256c-52.9 0-96 43.1-96 96s43.1 96 96 96 96-43.1 96-96-43.1-96-96-96z" fill="#3688FF" p-id="6372"></path></svg>
