<svg t="1605279966704" class="icon" viewBox="0 0 824 824" version="1.1" xmlns="http://www.w3.org/2000/svg"
     p-id="24013" width="250" height="250">
    <path d="M228.615814 662.376892c-18.253736-4.235464-32.292474-19.763113-32.292474-39.526225L196.323341 405.455405c1.403976-19.764136 14.040784-35.291784 32.292474-39.527249l200.780863-43.760666 21.061688-86.111217L217.384006 236.056274c-82.838683 0-148.829653 66.347081-148.829653 148.22488l0 256.922511c0 81.876776 67.394946 149.636019 148.829653 149.636019l233.07436 0-21.061688-86.111217L228.615814 662.376892 228.615814 662.376892 228.615814 662.376892zM812.707736 236.054227 578.226331 236.054227l21.061688 86.111217 200.784956 43.760666c18.252713 4.236488 32.287357 19.764136 32.287357 39.526225l0 217.396285c-1.399883 19.763113-14.035668 35.290761-32.287357 39.526225l-200.784956 43.76169-21.061688 86.111217 234.481406 0c81.436754 0 148.829653-66.348104 148.829653-149.636019l0-258.33365C960.128297 302.401308 894.14449 236.054227 812.707736 236.054227L812.707736 236.054227 812.707736 236.054227 812.707736 236.054227 812.707736 236.054227zM429.395654 502.858806l171.295318 0 0 21.174252L429.395654 524.033058 429.395654 502.858806 429.395654 502.858806z"
          p-id="24014"></path>
</svg>
