<?xml version="1.0" standalone="no"?><!DOCTYPE svg PUBLIC "-//W3C//DTD SVG 1.1//EN"
        "http://www.w3.org/Graphics/SVG/1.1/DTD/svg11.dtd">
<svg t="1605279622698" class="icon" viewBox="0 0 1000 1000" version="1.1" xmlns="http://www.w3.org/2000/svg"
     p-id="19880" xmlns:xlink="http://www.w3.org/1999/xlink" width="220" height="220">
    <defs>
        <style type="text/css"></style>
    </defs>
    <path d="M575.330231 490.861714q4.534857 35.986286-28.891429 57.709714t-63.707429 3.437714q-22.308571-9.728-30.573714-33.133714t-0.292571-46.884571 29.696-33.133714q20.553143-10.313143 41.398857-6.875429t36.571429 20.260571 15.725714 38.546286zM638.745088 478.866286q-7.972571-61.147429-64.585143-93.696t-112.566857-7.460571q-35.986286 16.018286-57.417143 50.541714t-19.748571 74.020571q2.267429 52.004571 44.251429 88.576t94.573714 32.036571q52.004571-4.534857 86.820571-47.981714t28.598857-96.036571zM775.375945 169.179429q-11.410286-15.433143-32.036571-25.453714t-33.133714-12.580571-40.594286-7.168q-166.253714-26.843429-323.437714 1.170286-24.576 4.022857-37.741714 6.875429t-31.451429 12.580571-28.598857 24.576q17.115429 16.018286 43.446857 25.965714t41.984 12.580571 50.029714 6.582857q130.267429 16.603429 256 0.585143 35.986286-4.534857 51.126857-6.875429t41.398857-12.288 42.861714-26.550857zM807.924517 760.539429q-4.534857 14.848-8.850286 43.739429t-7.972571 47.981714-16.310857 40.009143-33.133714 32.256q-49.152 27.428571-108.251429 40.886857t-115.419429 12.580571-115.126857-10.605714q-26.258286-4.534857-46.592-10.313143t-43.739429-15.433143-41.691429-24.868571-29.696-35.108571q-14.262857-54.857143-32.548571-166.838857l3.437714-9.142857 10.313143-5.12q127.414857 84.553143 289.426286 84.553143t290.011429-84.553143q11.995429 3.437714 13.677714 13.165714t-2.852571 25.746286-4.534857 21.138286zM911.348517 211.456q-14.848 95.451429-63.414857 374.272-2.852571 17.115429-15.433143 32.036571t-24.868571 22.820571-31.158857 17.700571q-144.018286 71.972571-348.598857 50.322286-141.677714-15.433143-225.133714-79.433143-8.557714-6.875429-14.555429-15.140571t-9.728-19.968-5.12-19.456-3.437714-22.601143-3.145143-19.968q-5.12-28.598857-15.140571-85.723429t-16.018286-92.306286-13.458286-84.260571-12.580571-90.258286q1.682286-14.848 10.020571-27.721143t17.993143-21.430857 25.746286-17.115429 26.258286-12.873143 27.428571-10.605714q71.460571-26.258286 178.834286-36.571429 216.576-21.138286 386.267429 28.598857 88.576 26.258286 122.88 69.705143 9.142857 11.410286 9.435429 29.110857t-3.145143 30.866286z"
          p-id="19881"></path>
</svg>
