<svg t="1572009364989" class="icon" viewBox="0 0 1300 1300" version="1.1" xmlns="http://www.w3.org/2000/svg" p-id="1183"
     width="200" height="200">
  <path
    d="M1136.522971 379.845486l8.572343-7.168 1.404343-12.288a34.523429 34.523429 0 0 0-9.976686-25.336686C1087.780571 280.9856 834.121143 29.374171 534.469486 260.359314l-73.5232-87.625143a44.938971 44.938971 0 0 0-28.496457-18.753828c-17.554286-2.633143-33.938286 6.933943-44.383086 28.203886l-2.4576 4.827428-14.482286 313.051429c-0.146286 6.5536 0.585143 35.4304 17.495772 55.588571 17.759086 21.182171 50.088229 24.839314 56.173714 25.278172l319.926857 50.556342c7.899429 0.936229 25.629257 1.667657 38.560914-9.186742 10.064457-8.660114 14.394514-22.235429 11.234743-35.108572-1.989486-9.4208-7.314286-18.900114-16.530286-29.842286l-89.146514-106.261942c45.845943-40.521143 191.019886-145.788343 392.864914-67.408458 13.165714 5.090743 25.863314 3.6864 34.816-3.803428z"
    fill="#D4F3FF" p-id="1184"></path>
  <path
    d="M371.0976 500.092343l14.482286-313.051429 2.4576-4.827428c3.510857-7.460571 8.513829-14.1312 14.7456-19.573029 8.133486-7.138743 19.017143-10.298514 29.725257-8.630857 15.067429 2.2528 24.634514 13.399771 28.496457 18.724571l73.552457 87.712915c299.6224-231.043657 553.252571 20.567771 602.024229 74.605714 6.670629 6.729143 10.269257 15.915886 9.976685 25.365943l-1.375085 12.346514-8.543086 7.168c-9.0112 7.5776-21.679543 8.923429-34.816 3.803429-192.833829-74.839771-333.882514 17.759086-386.135771 61.615543l-6.787658 5.851428 89.146515 106.261943c9.186743 10.942171 14.570057 20.392229 16.530285 29.842286 3.189029 12.873143-1.170286 26.477714-11.234742 35.108571-12.960914 10.8544-30.661486 10.122971-38.560915 9.186743l-319.926857-50.644114c-6.144-0.497371-38.414629-4.096-56.173714-25.278172-16.910629-20.158171-17.642057-49.034971-17.554286-55.588571z m78.613943 14.5408l2.808686 0.234057 2.779428 0.438857 254.332343 40.228572-93.330286-111.177143 48.566857-42.920229 8.104229-6.9632c46.928457-39.380114 156.320914-113.312914 307.463314-105.033143-96.782629-60.913371-242.307657-101.9904-405.269943 23.639772l-50.527085 38.941257-75.9808-90.5216-11.029943 238.738286c-0.058514 4.681143 1.053257 10.357029 0.380343 10.912914l-0.175543 0.087771c3.715657 1.784686 7.753143 2.925714 11.8784 3.393829z"
    fill="#1B7AFF" p-id="1185"></path>
  <path
    d="M974.789486 492.573257c-18.344229 0-33.236114 14.862629-33.236115 33.206857V891.172571a66.472229 66.472229 0 0 1-66.501485 66.413715h-731.428572a66.472229 66.472229 0 0 1-66.472228-66.413715V160.446171a66.472229 66.472229 0 0 1 66.472228-66.413714h365.714286a33.236114 33.236114 0 1 0 0-66.442971H143.652571a133.061486 133.061486 0 0 0-132.973714 132.827428V891.172571A133.061486 133.061486 0 0 0 143.623314 1024h731.428572a133.061486 133.061486 0 0 0 133.002971-132.856686V525.780114c0-18.344229-14.921143-33.206857-33.265371-33.206857z"
    fill="#1B7AFF" p-id="1186"></path>
</svg>
