<svg t="1605164461948" class="icon" viewBox="0 0 1124 1024" version="1.1" xmlns="http://www.w3.org/2000/svg" p-id="5915"
     width="200" height="200">
  <path
    d="M680.548764 540.600385c62.154595-50.182936 100.465133-126.70475 100.465133-209.045083 0-148.34256-120.671337-269.013897-269.013897-269.013897-148.34256 0-269.013897 120.671337-269.013897 269.013897 0 82.512249 38.470173 159.183466 100.855012 209.360262-150.004409 65.813938-252.204046 216.362746-252.204046 384.53698 0 19.901259 16.121166 36.004005 36.004005 36.004005s36.004005-16.10377 36.004005-36.004005c0-162.933883 115.818819-305.896922 275.395234-340.002694 16.294105-3.477194 27.595498-17.480116 28.40084-33.365922 0.024559-0.378623 0.034792-0.7552 0.047072-1.1328 0.010233-0.534166 0.016373-1.068332 0.00307-1.605567-0.187265-14.482853-9.130961-28.018124-23.527856-33.337269C366.821503 487.59824 314.995137 413.480172 314.995137 331.555302c0-108.646466 88.375793-197.004863 197.004863-197.004863 108.629069 0 197.004863 88.358397 197.004863 197.004863 0 81.923848-51.826366 156.042939-128.969327 184.451966-4.838192 1.787716-9.048073 4.51585-12.534478 7.882528-0.092098 0.089028-0.176009 0.186242-0.267083 0.276293-0.705058 0.694825-1.390673 1.406023-2.032286 2.152013-0.283456 0.327458-0.538259 0.679475-0.809435 1.01819-0.430812 0.540306-0.86981 1.073448-1.267876 1.636267-0.357134 0.50142-0.676405 1.031493-1.00898 1.553379-0.283456 0.446162-0.580215 0.883113-0.843204 1.341554-0.314155 0.546446-0.591471 1.118474-0.877997 1.684362-0.245593 0.485047-0.50142 0.961908-0.724501 1.457188-0.223081 0.497327-0.415462 1.013073-0.617054 1.523703-0.24457 0.613984-0.48914 1.225921-0.699941 1.853208-0.138146 0.414439-0.251733 0.840134-0.375553 1.261737-0.223081 0.7552-0.433882 1.51347-0.607844 2.284019-0.028653 0.127913-0.072655 0.24764-0.100284 0.376577-0.055259 0.25685-0.074701 0.511653-0.12382 0.768503-0.151449 0.793062-0.286526 1.587148-0.385786 2.391467-0.053212 0.434905-0.088004 0.865717-0.124843 1.299599-0.062422 0.724501-0.110517 1.450025-0.127913 2.181689-0.013303 0.5137-0.00614 1.023306 0.00307 1.533936 0.01228 0.638543 0.032746 1.276063 0.079818 1.916653 0.042979 0.596588 0.10847 1.188058 0.180102 1.778506 0.067538 0.550539 0.140193 1.100054 0.234337 1.64957 0.11461 0.673335 0.25685 1.337461 0.408299 2.000564 0.10847 0.471744 0.215918 0.942465 0.343831 1.412163 0.197498 0.722454 0.425695 1.431605 0.667196 2.137687 0.098237 0.287549 0.164752 0.578168 0.270153 0.865717 0.063445 0.170892 0.141216 0.330528 0.206708 0.500397 0.163729 0.423649 0.340761 0.839111 0.51984 1.255597 0.260943 0.608867 0.536212 1.206478 0.826831 1.792832 0.172939 0.348947 0.345877 0.696872 0.530073 1.039679 0.379647 0.708128 0.783853 1.394766 1.205455 2.068102 0.134053 0.213871 0.25685 0.433882 0.396019 0.645706 0.592494 0.904603 1.217734 1.780553 1.88186 2.618641 0.080841 0.101307 0.170892 0.195451 0.251733 0.295735 0.569982 0.703011 1.162476 1.381463 1.779529 2.034333 0.282433 0.299829 0.577145 0.585331 0.86981 0.87595 0.427742 0.422625 0.862647 0.836041 1.309832 1.235131 0.38374 0.344854 0.771573 0.683569 1.170662 1.013073 0.349971 0.286526 0.712221 0.557702 1.072425 0.830925 1.735527 1.321088 3.599991 2.487657 5.584182 3.486404 0.246617 0.12382 0.491187 0.249687 0.73985 0.36839 0.63752 0.302899 1.285273 0.588401 1.945305 0.854461 0.286526 0.115634 0.576121 0.218988 0.865717 0.327458 1.175779 0.440022 2.381234 0.819668 3.621481 1.140986 0.324388 0.083911 0.64366 0.184195 0.970094 0.258896 0.181125 0.041956 0.352017 0.103354 0.534166 0.14224 159.559019 33.964556 275.377838 177.139419 275.377838 340.424296 0 19.901259 16.121166 36.004005 36.004005 36.004005s36.004005-16.10377 36.004005-36.004005C932.361907 757.12993 830.344418 606.528933 680.548764 540.600385z"
    p-id="5916"></path>
</svg>
