<svg t="1605165154021" class="icon" viewBox="0 0 1024 1024" version="1.1" xmlns="http://www.w3.org/2000/svg" p-id="25040" width="200" height="200"><path d="M 159.863 238.394 Z m 0 0 M 165.184 239.927 Z m 0 0 M 167.088 240.035 Z m 0 0 M 167.088 198.298 Z m 0 0 M 156.71 201.862 Z m 0 0 M 161.568 199.234 Z m 0 0 M 159.863 417.782 Z m 0 0 M 156.71 381.256 a 17.9297 17.9297 0 0 1 3.15306 -1.92423 c -1.11203 0.523804 -2.16445 1.17765 -3.15306 1.92423 Z m 0 0 M 165.184 419.317 Z m 0 0 M 167.088 419.428 Z m 0 0 M 167.088 377.691 Z m 0 0 M 161.568 378.628 Z m 0 0 M 161.568 558.021 Z m 0 0 M 156.71 560.65 Z m 0 0 M 167.088 557.085 Z m 0 0 M 785.225 453.227 H 371.539 c -12.3232 0 -22.2918 -11.511 -22.2918 -25.7416 c 0 -14.2252 9.96852 -25.7453 22.2918 -25.7453 h 413.686 c 12.3274 0 22.296 11.5201 22.296 25.7453 c 0.004215 14.2306 -9.96852 25.7416 -22.296 25.7416 Z m 0 0 M 785.225 661.575 H 371.539 c -12.3232 0 -22.2918 -11.5068 -22.2918 -25.7416 c 0 -14.2252 9.96852 -25.741 22.2918 -25.741 h 413.686 c 12.3274 0 22.296 11.5159 22.296 25.741 c 0 14.2348 -9.96852 25.7416 -22.296 25.7416 Z m 0 0" p-id="25041"></path><path d="M 579.114 964.526 a 22.6572 22.6572 0 0 1 -13.5123 -4.46799 L 422.21 853.442 H 183.109 c -26.6688 0 -48.3814 -21.7162 -48.3814 -48.3892 V 251.837 c 0 -26.6688 21.7126 -48.3898 48.3814 -48.3898 h 790.551 c 26.6694 0 48.3856 21.721 48.3856 48.3898 v 553.216 c 0 26.673 -21.7162 48.3892 -48.3856 48.3892 h -258.718 L 593.993 958.95 a 22.6319 22.6319 0 0 1 -14.879 5.5764 Z M 183.109 248.745 c -1.70086 0 -3.09225 1.39561 -3.09225 3.09225 v 553.216 c 0 1.70507 1.39139 3.09646 3.09225 3.09646 h 246.601 c 4.86595 0 9.59524 1.57262 13.5129 4.46738 l 134.766 100.199 l 113.578 -99.0904 a 22.6536 22.6536 0 0 1 14.8839 -5.5758 h 267.209 c 1.70507 0 3.09706 -1.39561 3.09706 -3.09646 V 251.837 c 0 -1.70507 -1.395 -3.09225 -3.09706 -3.09225 H 183.109 Z m 0 0" p-id="25042"></path><path d="M 147.484 634.352 H 47.5042 C 22.9787 634.352 3.01037 614.16 3.01037 589.351 V 108.759 c 0 -24.8126 19.9684 -45.005 44.4938 -45.005 h 670.664 c 24.5297 0 44.477 20.1923 44.477 45.005 v 117.337 h -45.2891 V 108.759 l -669.852 0.287791 l 0.798349 480.304 l 99.1813 -0.288393 v 45.2891 h 0.000602 Z m 0 0" p-id="25043"></path></svg>
