<?xml version="1.0" standalone="no"?><!DOCTYPE svg PUBLIC "-//W3C//DTD SVG 1.1//EN" "http://www.w3.org/Graphics/SVG/1.1/DTD/svg11.dtd">
<svg t="1621477890861" class="icon" viewBox="0 0 1826 1024" version="1.1" xmlns="http://www.w3.org/2000/svg" p-id="5909" xmlns:xlink="http://www.w3.org/1999/xlink"
     width="250" height="250">
  <defs>
    <style type="text/css"></style>
  </defs>
  <path
    d="M1480.82259595 467.26924031C1471.81921795 454.30804431 1255.58086395 149.33333331 905.64168095 149.33333331S339.58209295 454.30804431 330.47387095 467.26924031a58.554725 58.554725 0 0 0 0 66.837309c9.016484 12.987407 225.241732 317.962117 575.16781 317.962117s566.151326-304.974711 575.180915-317.962117a58.554725 58.554725 0 0 0 0-66.837309zM905.64168095 793.42220431c-323.440156 0-527.058053-292.812942-527.058053-292.812942S582.20152495 207.88805831 905.64168095 207.88805831s527.071158 292.812942 527.071158 292.812942-203.617897 292.812942-527.071158 292.812941z m0-526.966315a234.258216 234.258216 0 1 0 234.258216 234.245111A234.245111 234.245111 0 0 0 905.64168095 266.45588931z m0 409.935497a175.860756 175.860756 0 0 1-175.611754-175.690386c0-96.848572 78.828709-175.690386 175.611754-175.690386s175.690386 78.841814 175.690386 175.690386-78.828709 175.690386-175.690386 175.690386z m0 0"
    p-id="5910"></path>
</svg>
