<svg t="1605164597903" class="icon" viewBox="0 0 1124 924" version="1.1" xmlns="http://www.w3.org/2000/svg" p-id="9269"
     width="250" height="270">
  <path
    d="M512 985.6c-256 0-473.6-211.2-473.6-467.2C32 262.4 236.8 38.4 499.2 38.4L512 38.4c256 0 473.6 211.2 473.6 467.2 6.4 262.4-204.8 480-467.2 486.4L512 992 512 985.6zM512 96 512 96C275.2 102.4 96 294.4 96 518.4c6.4 224 192 409.6 416 409.6l6.4 0c230.4-6.4 409.6-198.4 409.6-422.4C921.6 281.6 736 96 512 96L512 96z"
    p-id="9270"></path>
  <path d="M537.6 614.4l76.8 76.8-44.8 44.8L768 768l-38.4-198.4-44.8 44.8L614.4 537.6 537.6 614.4z" p-id="9271"></path>
  <path d="M486.4 409.6 403.2 326.4 448 288 249.6 249.6 288 448l44.8-44.8 76.8 76.8L486.4 409.6z" p-id="9272"></path>
  <path d="M409.6 537.6 326.4 620.8 294.4 576 256 774.4l198.4-38.4-44.8-44.8 76.8-76.8L409.6 537.6z" p-id="9273"></path>
  <path d="M614.4 486.4l76.8-76.8 44.8 44.8L768 256 576 294.4l44.8 44.8L537.6 409.6 614.4 486.4z" p-id="9274"></path>
</svg>
