<svg t="1605164905374" class="icon" viewBox="0 0 924 924" version="1.1" xmlns="http://www.w3.org/2000/svg"
     p-id="19727" width="220" height="220">
  <path
    d="M657.627823 343.038977H542.189886V227.498701c0-16.681191-13.508695-30.189886-30.189886-30.189886s-30.189886 13.508695-30.189886 30.189886v115.437937H366.372177c-16.681191 0-30.189886 13.508695-30.189886 30.189886s13.508695 30.189886 30.189886 30.189886h115.437937V518.856686c0 16.681191 13.508695 30.189886 30.189886 30.189886s30.189886-13.508695 30.189886-30.189886V403.418749h115.437937c16.681191 0 30.189886-13.508695 30.189886-30.189886s-13.508695-30.189886-30.189886-30.189886z"
    p-id="19728"></path>
  <path
    d="M749.323206 0H274.676794c-46.257046 0-83.917649 37.660604-83.917649 83.917649v534.719169c0 21.593444 19.853688 34.897462 22.923845 36.739556 9.210474 6.652009 266.489706 193.522287 267.410754 194.136318 1.43274 1.023386 2.660804 1.944433 3.888866 2.865481 8.698781 6.447332 14.225065 10.540875 24.151909 10.540876 0.818709 0 1.637418 0 2.558465-0.102339 12.075954 0 18.113932-4.502898 28.961823-12.587647 1.023386-0.818709 2.149111-1.637418 3.274835-2.456127 1.842095-1.330402 255.232461-184.51649 267.206077-193.215271 3.684189-2.046772 19.751349-12.178293 22.105136-35.102138V83.917649c0-46.257046-37.660604-83.917649-83.917649-83.917649z m22.821507 88.522886v494.704777c0 12.894663-8.289426 26.301019-18.830302 30.496902l-1.023386 0.409355-202.835099 156.885069-0.409354 0.307015c-5.628623 5.014591-23.3332 18.21627-37.046572 18.216271-8.494104 0-25.277633-10.23386-33.874076-16.78353l-206.519288-153.507896-0.511693-0.307015c-16.78353-10.438537-20.263042-18.318609-20.263042-27.01739V88.522886c0-17.4999 14.225065-31.827304 31.827303-31.827303h457.658206c17.4999 0 31.827304 14.327404 31.827303 31.827303z"
    p-id="19729"></path>
</svg>
