<svg height="200" viewBox="0 0 512 512" width="200" xmlns="http://www.w3.org/2000/svg">
  <g fill="#ffb954">
    <path d="m252 351.933594h35.992188v45.992187h-35.992188zm0 0"/>
    <path
      d="m367.980469 417.921875c0-11.046875-8.953125-19.996094-20-19.996094h-146.644531c-6.691407 3.230469-11.324219 10.0625-11.324219 17.996094v83.984375h177.96875zm0 0"/>
    <path
      d="m371.976562 49.992188h-187.761718c-7.519532 2.875-12.863282 10.136718-12.863282 18.664062v143.972656c0 67.542969 49.25 123.574219 113.800782 134.164063 61.085937-13.347657 106.820312-67.742188 106.820312-132.832031v-143.972657c0-11.042969-8.949218-19.996093-19.996094-19.996093zm0 0"/>
  </g>
  <path
    d="m260.003906 135.960938 16.390625 33.195312c.652344 1.316406 1.910157 2.230469 3.363281 2.441406l36.636719 5.316406c3.667969.53125 5.132813 5.035157 2.480469 7.621094l-26.503906 25.847656c-1.050782 1.027344-1.53125 2.507813-1.285156 3.957032l6.269531 36.484375c.625 3.648437-3.203125 6.433593-6.484375 4.710937l-32.769532-17.21875c-1.300781-.683594-2.859374-.683594-4.160156.003906l-32.761718 17.234376c-3.277344 1.722656-7.113282-1.058594-6.484376-4.710938l6.246094-36.488281c.25-1.449219-.234375-2.929688-1.285156-3.953125l-26.515625-25.835938c-2.65625-2.582031-1.191406-7.089844 2.472656-7.621094l36.632813-5.335937c1.457031-.210937 2.714844-1.125 3.363281-2.445313l16.375-33.199218c1.640625-3.320313 6.378906-3.324219 8.019531-.003906zm0 0"
    fill="#feda9b"/>
  <path
    d="m447.1875 77.957031h-31.550781c-.007813 0-23.664063.007813-23.664063 0 0 8.960938-.046875 8.960938-.046875 19.996094v115.976563c0 22.328124-5.382812 43.398437-14.921875 61.988281h11.96875c62.398438 0 112.980469-50.582031 112.980469-112.976563v-30.222656c0-30.246094-24.519531-54.761719-54.765625-54.761719zm14.773438 84.984375c0 39.238282-31.128907 71.34375-69.988282 72.921875v-117.914062h55.214844c8.160156 0 14.773438 6.613281 14.773438 14.769531zm0 0"
    fill="#ffb954"/>
  <path
    d="m10 132.75v30.21875c0 62.398438 50.582031 112.980469 112.976562 112.980469h11.96875c-9.535156-18.589844-14.917968-39.660157-14.917968-61.988281v-115.980469c0-11.035157-.058594-19.992188-.050782-19.992188-.007812 0 .007813-.003906 0-.003906h-55.214843c-30.246094 0-54.761719 24.519531-54.761719 54.765625zm39.992188 0c0-8.15625 6.613281-14.773438 14.769531-14.773438h55.214843v117.917969c-38.859374-1.578125-69.984374-33.683593-69.984374-72.925781zm0 0"
    fill="#ffb954"/>
  <path
    d="m447.238281 67.988281h-45.339843c-1.03125-15.609375-14.054688-27.996093-29.921876-27.996093h-123.976562c-5.519531 0-9.996094 4.476562-9.996094 10 0 5.519531 4.476563 9.996093 9.996094 9.996093h123.976562c5.515626 0 10 4.484375 10 10v143.972657c0 69.460937-56.511718 125.976562-125.976562 125.976562s-125.976562-56.515625-125.976562-125.976562v-143.972657c0-5.515625 4.484374-10 10-10h24.992187c5.523437 0 10-4.476562 10-9.996093 0-5.523438-4.476563-10-10-10h-24.992187c-15.867188 0-28.890626 12.386718-29.921876 27.996093h-45.339843c-35.710938 0-64.761719 29.050781-64.761719 64.761719v30.21875c0 67.808594 55.167969 122.976562 122.976562 122.976562h6.074219c18.382813 32.289063 48.726563 56.917969 84.957031 67.820313v34.160156h-49.988281c-16.539062 0-29.996093 13.457031-29.996093 29.996094v83.984375c0 5.519531 4.476562 9.996094 9.996093 9.996094h223.960938c5.519531 0 9.996093-4.476563 9.996093-9.996094v-83.984375c0-16.539063-13.457031-29.996094-29.996093-29.996094h-49.988281v-34.160156c36.230468-10.902344 66.574218-35.53125 84.957031-67.820313h6.074219c67.808593 0 122.976562-55.167968 122.976562-122.976562v-30.21875c0-35.710938-29.050781-64.761719-64.761719-64.761719zm-336.8125 156.714844c-28.964843-5.800781-50.4375-31.222656-50.4375-61.734375v-30.21875c0-2.632812 2.140625-4.773438 4.773438-4.773438h45.265625v85.984376c0 3.613281.136718 7.195312.398437 10.742187zm-90.429687-61.734375v-30.21875c0-24.683594 20.082031-44.765625 44.765625-44.765625h45.265625v19.996094h-45.265625c-13.65625 0-24.769531 11.113281-24.769531 24.769531v30.21875c0 21.542969 8.246093 41.96875 23.214843 57.519531 13.496094 14.019531 31.152344 22.710938 50.238281 24.898438 1.550782 7.035156 3.609376 13.882812 6.136719 20.503906-55.21875-1.800781-99.585937-47.273437-99.585937-102.921875zm337.984375 254.953125v73.984375h-203.960938v-73.984375c0-5.515625 4.484375-10 10-10h183.960938c5.515625 0 10 4.484375 10 10zm-79.984375-29.996094h-43.992188v-29.652343c7.175782 1.089843 14.519532 1.660156 21.996094 1.660156s14.820312-.570313 21.996094-1.660156zm123.976562-259.949219h45.265625c2.632813 0 4.773438 2.140626 4.773438 4.773438v30.21875c0 30.511719-21.472657 55.933594-50.4375 61.734375.261719-3.546875.398437-7.128906.398437-10.742187zm90.03125 34.992188c0 55.648438-44.367187 101.121094-99.585937 102.917969 2.527343-6.617188 4.585937-13.464844 6.136719-20.5 19.085937-2.1875 36.742187-10.878907 50.238281-24.898438 14.96875-15.550781 23.214843-35.980469 23.214843-57.519531v-30.21875c0-13.660156-11.113281-24.769531-24.769531-24.769531h-45.265625v-19.996094h45.265625c24.683594 0 44.765625 20.082031 44.765625 44.765625zm0 0"/>
  <path
    d="m208.007812 59.988281c2.632813 0 5.210938-1.070312 7.070313-2.929687s2.929687-4.4375 2.929687-7.066406c0-2.628907-1.070312-5.210938-2.929687-7.070313s-4.4375-2.929687-7.070313-2.929687c-2.628906 0-5.207031 1.070312-7.066406 2.929687s-2.929687 4.441406-2.929687 7.070313c0 2.628906 1.070312 5.207031 2.929687 7.066406s4.4375 2.929687 7.066406 2.929687zm0 0"/>
  <path
    d="m210.597656 215.535156-5.757812 33.621094c-.9375 5.46875 1.269531 10.890625 5.761718 14.148438 2.535157 1.84375 5.5 2.777343 8.484376 2.777343 2.300781 0 4.613281-.554687 6.75-1.679687l30.1875-15.882813 30.199218 15.867188c4.910156 2.578125 10.75 2.15625 15.234375-1.105469 4.488281-3.261719 6.691407-8.683594 5.753907-14.152344l-5.777344-33.621094 24.421875-23.816406c3.96875-3.871094 5.371093-9.554687 3.65625-14.828125-1.714844-5.277343-6.191407-9.046875-11.679688-9.84375l-33.761719-4.898437-15.105468-30.585938c-2.453125-4.972656-7.425782-8.0625-12.96875-8.0625-.003906 0-.003906 0-.003906 0-5.550782.003906-10.519532 3.09375-12.972657 8.070313l-15.089843 30.59375-33.753907 4.914062c-5.492187.800781-9.964843 4.574219-11.679687 9.851563-1.710938 5.273437-.308594 10.957031 3.667968 14.828125zm23.089844-34.03125c4.714844-.683594 8.785156-3.644531 10.890625-7.914062l11.417969-23.15625 11.433594 23.152344c2.109374 4.269531 6.183593 7.226562 10.894531 7.90625l25.550781 3.707031-18.484375 18.027343c-3.40625 3.324219-4.960937 8.109376-4.15625 12.804688l4.371094 25.441406-22.855469-12.003906c-4.214844-2.214844-9.246094-2.214844-13.460938.003906l-22.847656 12.019532 4.355469-25.445313c.804687-4.695313-.75-9.484375-4.164063-12.808594l-18.492187-18.015625zm0 0"/>
  <path
    d="m202.011719 447.914062c0 5.523438 4.476562 10 9.996093 10h87.984376c5.519531 0 9.996093-4.476562 9.996093-10 0-5.519531-4.476562-9.996093-9.996093-9.996093h-87.984376c-5.519531 0-9.996093 4.476562-9.996093 9.996093zm0 0"/>
  <path
    d="m429.628906 34.742188c2.558594 0 5.117188-.972657 7.070313-2.925782l14.746093-14.746094c3.90625-3.90625 3.90625-10.238281 0-14.140624-3.902343-3.90625-10.234374-3.90625-14.140624 0l-14.746094 14.746093c-3.90625 3.902344-3.90625 10.234375 0 14.140625 1.953125 1.953125 4.511718 2.925782 7.070312 2.925782zm0 0"/>
  <path
    d="m64.433594 323.617188c-3.902344-3.902344-10.234375-3.902344-14.140625 0l-14.746094 14.746093c-3.90625 3.90625-3.90625 10.238281 0 14.140625 1.953125 1.953125 4.511719 2.929688 7.070313 2.929688 2.558593 0 5.117187-.976563 7.066406-2.929688l14.75-14.746094c3.90625-3.90625 3.90625-10.234374 0-14.140624zm0 0"/>
  <path
    d="m339.058594 127.976562c2.558594 0 5.117187-.976562 7.066406-2.929687 3.90625-3.902344 3.90625-10.234375 0-14.140625l-14.746094-14.746094c-3.902344-3.902344-10.234375-3.902344-14.140625 0-3.902343 3.90625-3.902343 10.234375 0 14.140625l14.75 14.746094c1.949219 1.953125 4.511719 2.929687 7.070313 2.929687zm0 0"/>
  <path
    d="m80.148438 53.9375c1.953124 1.953125 4.511718 2.925781 7.070312 2.925781s5.117188-.972656 7.070312-2.925781c3.902344-3.90625 3.902344-10.234375 0-14.140625l-14.746093-14.746094c-3.90625-3.90625-10.234375-3.90625-14.140625 0-3.90625 3.902344-3.90625 10.234375 0 14.136719zm0 0"/>
  <path
    d="m82.273438 467.464844c-3.90625-3.902344-10.234376-3.902344-14.140626 0-3.90625 3.90625-3.90625 10.234375 0 14.140625l14.746094 14.746093c1.953125 1.953126 4.511719 2.929688 7.070313 2.929688 2.558593 0 5.117187-.976562 7.070312-2.929688 3.902344-3.902343 3.902344-10.234374 0-14.140624zm0 0"/>
  <path
    d="m488.277344 308.871094c-3.90625-3.90625-10.234375-3.90625-14.140625 0-3.90625 3.902344-3.90625 10.234375 0 14.140625l14.746093 14.746093c1.953126 1.953126 4.511719 2.929688 7.070313 2.929688s5.117187-.976562 7.070313-2.929688c3.902343-3.902343 3.902343-10.234374 0-14.140624zm0 0"/>
  <path
    d="m437.304688 435.472656-14.746094 14.746094c-3.902344 3.902344-3.902344 10.234375 0 14.140625 1.953125 1.953125 4.511718 2.929687 7.070312 2.929687s5.117188-.976562 7.070313-2.929687l14.746093-14.746094c3.90625-3.90625 3.90625-10.238281 0-14.140625-3.902343-3.90625-10.234374-3.90625-14.140624 0zm0 0"/>
</svg>
