<svg t="1572439921661" class="icon" viewBox="0 0 1024 1024" version="1.1" xmlns="http://www.w3.org/2000/svg" p-id="7494" width="200" height="200"><path d="M631.634718 678.132885a236.307692 131.282051 15 1 0 67.95659-253.617447 236.307692 131.282051 15 1 0-67.95659 253.617447Z" fill="#FFCB57" p-id="7495"></path><path d="M494.972587 1024A393.846154 393.846154 0 0 1 101.126433 630.153846V210.051282a26.25641 26.25641 0 0 1 52.51282 0v420.102564a341.333333 341.333333 0 0 0 682.666667 0v-105.025641a26.25641 26.25641 0 0 1 52.512821 0v105.025641a393.846154 393.846154 0 0 1-393.846154 393.846154z" fill="#472D22" p-id="7496"></path><path d="M734.037202 587.224615a426.272821 426.272821 0 0 1-109.226667-14.966153c-142.178462-38.071795-235.651282-134.826667-212.808205-220.16s152.155897-122.22359 294.465641-84.151795 236.307692 134.826667 212.808205 220.16C901.946946 551.384615 828.428997 587.224615 734.037202 587.224615zM597.635151 306.149744c-65.641026 0-124.061538 19.035897-134.957949 59.602051-15.885128 59.733333 79.819487 130.100513 175.786667 155.831795s213.989744 13.128205 230.137436-47.130257c15.885128-59.733333-79.819487-130.100513-175.786667-155.831795a373.76 373.76 0 0 0-95.179487-12.471794z m296.30359 175.130256zM284.921305 472.615385H206.152074a26.25641 26.25641 0 0 1 0-52.512821h78.769231a26.25641 26.25641 0 0 1 0 52.512821zM284.921305 564.512821H206.152074a26.25641 26.25641 0 0 1 0-52.512821h78.769231a26.25641 26.25641 0 0 1 0 52.512821z" fill="#472D22" p-id="7497"></path><path d="M343.998228 813.948718A151.105641 151.105641 0 0 1 193.023869 662.974359V129.050256L108.872074 44.767179a26.25641 26.25641 0 0 1 0-37.021538 26.25641 26.25641 0 0 1 37.021538 0l91.897436 91.897436A26.25641 26.25641 0 0 1 245.536689 118.153846v544.820513a98.461538 98.461538 0 0 0 196.923077 0V472.615385a26.25641 26.25641 0 0 1 52.512821 0v190.358974A151.105641 151.105641 0 0 1 343.998228 813.948718z" fill="#472D22" p-id="7498"></path></svg>
