<?xml version="1.0" encoding="iso-8859-1"?>
<!-- Generator: Adobe Illustrator 19.0.0, SVG Export Plug-In . SVG Version: 6.00 Build 0)  -->
<svg version="1.1" id="Capa_1" xmlns="http://www.w3.org/2000/svg" xmlns:xlink="http://www.w3.org/1999/xlink" x="0px"
     y="0px"
     viewBox="0 0 511.999 511.999" style="enable-background:new 0 0 511.999 511.999;" xml:space="preserve">
<path style="fill:#C8F5FF;" d="M399.674,350.386h16.165c47.586,0,86.162-38.576,86.162-86.162s-38.576-86.163-86.162-86.163
	c-11.327,0-22.134,2.208-32.041,6.181c-9.085-72.849-71.225-129.221-146.535-129.221c-77.724,0-141.424,60.043-147.247,136.276
	c-13.834-0.089-27.869,3.418-40.67,10.923c-37.897,22.222-50.604,70.957-28.383,108.853c15.364,26.202,43.403,40.353,71.772,39.253
	v0.058h21.623L399.674,350.386z"/>
  <path d="M138.47,201.298c-0.256,0-0.513-0.01-0.772-0.029c-5.507-0.421-9.629-5.226-9.208-10.732
	c2.088-27.34,14.329-52.72,34.467-71.462c20.246-18.842,46.635-29.218,74.307-29.218c5.523,0,9.999,4.477,9.999,9.999
	s-4.477,9.999-9.999,9.999c-46.292,0-85.313,36.109-88.833,82.204C148.029,197.306,143.647,201.298,138.47,201.298z"/>
  <path d="M89.609,360.387c-31.761,0-61.13-16.727-77.271-44.254C0.239,295.499-3.1,271.391,2.935,248.246
	s20.721-42.553,41.353-54.652c11.255-6.601,23.789-10.644,36.682-11.887c4.809-36.127,21.967-69.394,48.894-94.454
	c29.261-27.232,67.403-42.23,107.398-42.23c75.334,0,139.751,53.415,154.512,126.092c7.832-2.029,15.885-3.053,24.064-3.053
	c53.024,0,96.161,43.138,96.161,96.161s-43.138,96.161-96.161,96.161h-16.165c-5.523,0-9.999-4.477-9.999-9.999
	s4.477-9.999,9.999-9.999h16.165c41.996,0,76.162-34.166,76.162-76.162s-34.166-76.162-76.162-76.162
	c-9.752,0-19.281,1.838-28.318,5.463c-2.878,1.153-6.129,0.906-8.8-0.667c-2.671-1.575-4.461-4.3-4.845-7.377
	c-8.564-68.673-67.295-120.459-136.613-120.459c-71.537,0-131.836,55.802-137.277,127.038c-0.398,5.215-4.748,9.237-9.969,9.237
	c-0.167,0-0.338-0.001-0.508-0.001c-12.312,0-24.442,3.298-35.104,9.551c-16.025,9.395-27.431,24.471-32.118,42.445
	c-4.688,17.975-2.094,36.7,7.303,52.725c12.998,22.166,37.048,35.327,62.758,34.318c0.493-0.019,0.981-0.001,1.465,0.051h20.546
	c5.523,0,9.999,4.477,9.999,9.999s-4.477,9.999-9.999,9.999H92.735c-0.255,0-0.509-0.01-0.759-0.028
	C91.185,360.377,90.397,360.387,89.609,360.387z"/>
  <path d="M270.515,113.508c-2.63,0-5.21-1.07-7.07-2.93c-1.86-1.86-2.93-4.44-2.93-7.07s1.07-5.21,2.93-7.07s4.44-2.93,7.07-2.93
	s5.21,1.07,7.07,2.93c1.86,1.86,2.93,4.44,2.93,7.07s-1.07,5.21-2.93,7.07C275.725,112.439,273.144,113.508,270.515,113.508z"/>
  <polygon style="fill:#A5DC69;" points="345.501,328.986 256.016,173.995 166.531,328.986 216.019,328.986 216.019,456.978
	296.014,456.978 296.014,328.986 "/>
  <path d="M296.014,396.491c-2.63,0-5.21-1.07-7.07-2.93c-1.86-1.86-2.93-4.44-2.93-7.07c0-2.63,1.07-5.21,2.93-7.07
	c1.86-1.86,4.44-2.93,7.07-2.93c2.63,0,5.21,1.07,7.07,2.93c1.86,1.86,2.93,4.44,2.93,7.07c0,2.63-1.07,5.21-2.93,7.07
	C301.224,395.421,298.643,396.491,296.014,396.491z"/>
  <path d="M296.014,466.976h-79.995c-5.523,0-9.999-4.477-9.999-9.999V338.986h-39.488c-3.573,0-6.874-1.906-8.659-5
	c-1.787-3.094-1.787-6.906,0-9.999l89.485-154.992c1.786-3.094,5.087-5,8.659-5s6.874,1.906,8.659,5l89.485,154.992
	c1.787,3.094,1.787,6.906,0,9.999c-1.786,3.094-5.087,5-8.659,5h-39.488v7.509c0,5.523-4.477,9.999-9.999,9.999
	c-5.523,0-9.999-4.477-9.999-9.999v-17.508c0-5.523,4.477-9.999,9.999-9.999h32.168l-72.166-124.993l-72.166,124.993h32.168
	c5.523,0,9.999,4.477,9.999,9.999v117.992h59.996v-20.988c0-5.523,4.477-9.999,9.999-9.999c5.523,0,9.999,4.477,9.999,9.999v30.987
	C306.013,462.499,301.536,466.976,296.014,466.976z"/>
  <g>
</g>
  <g>
</g>
  <g>
</g>
  <g>
</g>
  <g>
</g>
  <g>
</g>
  <g>
</g>
  <g>
</g>
  <g>
</g>
  <g>
</g>
  <g>
</g>
  <g>
</g>
  <g>
</g>
  <g>
</g>
  <g>
</g>
</svg>
