<?xml version="1.0" standalone="no"?><!DOCTYPE svg PUBLIC "-//W3C//DTD SVG 1.1//EN"
        "http://www.w3.org/Graphics/SVG/1.1/DTD/svg11.dtd">
<svg t="1592624749331" class="icon" viewBox="0 0 900 900" version="1.1" xmlns="http://www.w3.org/2000/svg" p-id="1546"
     xmlns:xlink="http://www.w3.org/1999/xlink" width="400" height="400">
    <defs>
        <style type="text/css"></style>
    </defs>
    <path d="M656.406 876.703h-37.623c-3.335 0-6.037 2.703-6.037 6.037v18.718c0.003 3.332 2.706 6.033 6.037 6.033 0.683 0 1.339-0.113 1.95-0.322l37.58-12.528c2.419-0.823 4.128-3.074 4.13-5.724v-6.176c0-3.335-2.703-6.037-6.037-6.037zM1001.397 219.82c0.735-1.785 1.161-3.856 1.161-6.025 0-8.956-7.261-16.218-16.218-16.218-0.004 0-0.009 0-0.009 0h-35.575c-4.48-0.007-8.537-1.822-11.479-4.754l-71.572-71.572c-2.946-2.935-7.011-4.752-11.499-4.752-1.401 0-2.756 0.176-4.052 0.507l-49.399 12.353c-5.302 1.364-9.488 5.196-11.319 10.166l-39.216 91.534c-0.83 1.884-1.313 4.081-1.313 6.391 0 7.125 4.594 13.177 10.981 15.353 6.615 2.245 11.209 8.297 11.209 15.419 0 5.813-3.058 10.91-7.653 13.774l-179.387 110.383c-2.416 1.509-5.35 2.403-8.495 2.403-1.836 0-3.598-0.304-5.242-0.865l-139.033-46.359c-2.854-0.967-5.262-2.617-7.117-4.757l-73.839-58.726c-3.281-2.617-5.511-6.43-6.025-10.77l-11.553-57.716c-1.537-7.486-8.071-13.036-15.902-13.036-1.836 0-3.6 0.305-5.245 0.866l-123.083 41.044c-5.504 1.887-9.614 6.489-10.774 12.162l-11.597 46.33c-1.66 6.482-7.067 11.339-13.724 12.16l-90.908 12.979c-7.918 1.175-13.929 7.911-13.959 16.057v31.767c0.001 2.649 0.634 5.147 1.754 7.356l29.657 59.338c1.078 2.112 1.71 4.606 1.71 7.249 0 0.005 0 0.007 0 0.011v71.638c0.009 4.86 2.147 9.22 5.531 12.198l122.391 107.092c2.837 2.493 6.581 4.014 10.681 4.014h71.813c0.001 0 0.002 0 0.004 0 3.351 0 6.464 1.017 9.047 2.759l39.962 26.639c2.531 1.713 5.652 2.735 9.011 2.735 1.146 0 2.265-0.119 3.343-0.345l56.723-11.347c0.958-0.202 2.060-0.317 3.187-0.317 8.956 0 16.218 7.261 16.218 16.218 0 0.001 0 0.002 0 0.003v39.753c-0.002 4.48-1.821 8.537-4.759 11.472l-1.546 1.546c-2.911 2.942-4.711 6.989-4.711 11.456 0 3.851 1.338 7.39 3.572 10.178l49.65 62.055c2.998 3.723 7.554 6.084 12.663 6.084 2.173 0 4.247-0.428 6.141-1.203l64.771-25.914c1.78-0.729 3.847-1.15 6.012-1.15 2.647 0 5.146 0.631 7.355 1.751l85.937 43.001c2.114 1.079 4.61 1.713 7.254 1.713 2.385 0 4.651-0.515 6.691-1.441l136.58-60.767c4.064-1.836 7.177-5.178 8.667-9.297l59.751-119.264c1.074-2.114 1.703-4.609 1.703-7.251 0-2.047-0.377-4.003-1.066-5.808l-44.682-119.154c-0.654-1.694-1.035-3.652-1.035-5.701 0-2.642 0.633-5.136 1.751-7.34l8.101-16.195c1.070-2.11 1.697-4.602 1.697-7.238 0-4.479-1.808-8.535-4.734-11.481l-28.175-28.269c-2.91-2.941-4.709-6.988-4.709-11.454 0-5.279 2.511-9.97 6.403-12.946l40.071-30.066c2.677-2.026 6.062-3.245 9.733-3.245 4.481 0 8.54 1.819 11.476 4.758l11.715 11.715c2.934 2.935 6.991 4.752 11.47 4.752s8.535-1.817 11.47-4.752l79.654-79.654c2.933-2.934 4.748-6.989 4.748-11.466 0-2.643-0.633-5.139-1.754-7.345l-8.032-16.067c-1.077-2.111-1.708-4.605-1.708-7.246 0-2.171 0.428-4.243 1.202-6.138zM827.836 826.795c-0.944-2.080-2.646-3.678-4.745-4.464 0.176 0.007-0.721-0.234-1.673-0.234-0.793 0-1.546 0.167-2.227 0.467l-34.132 15.727c-1.597 0.794-2.739 2.294-3.026 4.081-0.077 0.259-0.155 0.913-0.155 1.585 0 1.319 0.303 2.567 0.843 3.679l3.166 6.929c1.13 2.703 3.721 4.582 6.759 4.655l40.622-1.676c4.223-0.175 6.387-5.13 4.257-9.749z"
          fill="#FF4A4A" p-id="1547"></path>
    <path d="M535.186 511.145l17.45 52.35 55.236 0.429c4.081 0.041 7.373 3.358 7.373 7.446 0 2.441-1.175 4.608-2.99 5.965l-44.494 32.878 16.658 52.665c0.219 0.671 0.347 1.444 0.347 2.246 0 4.112-3.333 7.446-7.446 7.446-1.623 0-3.125-0.519-4.347-1.401l-44.884-32.105-44.94 32.121c-1.202 0.865-2.703 1.385-4.326 1.385-4.112 0-7.446-3.333-7.446-7.446 0-0.802 0.127-1.575 0.362-2.3l16.644-52.612-44.439-32.818c-1.835-1.372-3.009-3.539-3.009-5.979 0-4.086 3.293-7.403 7.369-7.446l55.241-0.429 17.45-52.35c1.019-2.98 3.793-5.085 7.061-5.085s6.044 2.105 7.046 5.033zM735.77 524.058l12.482 17.054 20.229-6.329c0.258-0.085 0.555-0.133 0.863-0.133 1.575 0 2.85 1.276 2.85 2.85 0 0.633-0.204 1.216-0.554 1.687l-12.372 17.186 12.262 17.31c0.336 0.462 0.537 1.040 0.537 1.666 0 1.575-1.276 2.85-2.85 2.85-0.317 0-0.623-0.052-0.907-0.147l-20.164-6.451-12.635 17.009c-0.526 0.705-1.356 1.156-2.292 1.156-1.571 0-2.846-1.271-2.85-2.842l-0.093-21.185-20.078-6.771c-1.153-0.383-1.97-1.452-1.97-2.71s0.817-2.329 1.948-2.705l20.146-6.637 0.233-21.185c0.015-1.563 1.285-2.823 2.85-2.823 0.943 0 1.778 0.457 2.299 1.164zM659.43 473.127l21.068 2.327 8.993-19.195c0.461-0.99 1.447-1.663 2.591-1.663 1.377 0 2.525 0.976 2.791 2.273l4.343 20.726 21.033 2.617c1.428 0.169 2.525 1.372 2.525 2.832 0 1.061-0.58 1.987-1.44 2.478l-18.407 10.537 4.014 20.812c0.034 0.166 0.054 0.357 0.054 0.551 0 1.575-1.276 2.85-2.85 2.85-0.745 0-1.421-0.285-1.929-0.752l-15.691-14.238-18.579 10.238c-0.398 0.224-0.874 0.356-1.379 0.356-1.575 0-2.85-1.276-2.85-2.85 0-0.425 0.092-0.826 0.259-1.189l8.682-19.306-15.472-14.483c-0.561-0.522-0.91-1.265-0.91-2.089 0-1.575 1.276-2.85 2.85-2.85 0.113 0 0.222 0.009 0.33 0.020zM692.738 678.479l-12.53 17.090-20.23-6.318c-0.258-0.085-0.555-0.134-0.863-0.134-1.575 0-2.85 1.276-2.85 2.85 0 0.633 0.204 1.216 0.554 1.687l12.373 17.186-12.262 17.276c-0.337 0.462-0.537 1.040-0.537 1.666 0 1.575 1.276 2.85 2.85 2.85 0.317 0 0.623-0.052 0.907-0.147l20.153-6.404 12.646 17.009c0.525 0.705 1.356 1.155 2.292 1.155 1.571 0 2.846-1.271 2.85-2.842l0.093-21.185 20.078-6.771c1.153-0.383 1.97-1.452 1.97-2.71s-0.817-2.329-1.948-2.705l-20.146-6.638-0.233-21.185c-0.007-1.567-1.282-2.835-2.85-2.835-0.943 0-1.779 0.457-2.299 1.163zM769.019 630.61l-21.068 2.327-8.98-19.195c-0.461-0.99-1.447-1.663-2.591-1.663-1.377 0-2.525 0.976-2.791 2.273l-4.33 20.761-21.022 2.559c-1.428 0.169-2.525 1.372-2.525 2.832 0 1.061 0.58 1.987 1.441 2.478l18.407 10.537-4.014 20.8c-0.034 0.166-0.054 0.357-0.054 0.551 0 1.575 1.276 2.85 2.85 2.85 0.745 0 1.421-0.285 1.929-0.752l15.691-14.238 18.556 10.237c0.398 0.224 0.874 0.356 1.379 0.356 1.575 0 2.85-1.276 2.85-2.85 0-0.425-0.093-0.826-0.259-1.188l-8.683-19.306 15.473-14.483c0.561-0.522 0.91-1.265 0.91-2.089 0-1.575-1.276-2.85-2.85-2.85-0.112 0-0.222 0.007-0.33 0.020z"
          fill="#FFCF64" p-id="1548"></path>
</svg>
