<?xml version="1.0" standalone="no"?><!DOCTYPE svg PUBLIC "-//W3C//DTD SVG 1.1//EN" "http://www.w3.org/Graphics/SVG/1.1/DTD/svg11.dtd"><svg t="1569383741247" class="icon" viewBox="0 0 1024 1024" version="1.1" xmlns="http://www.w3.org/2000/svg" p-id="3567" xmlns:xlink="http://www.w3.org/1999/xlink" width="200" height="200"><defs><style type="text/css"></style></defs><path d="M956 624.752C847.632 771.248 689.056 863.872 512 863.872 334.96 863.872 176.384 771.248 68 624.752 20.144 560.08 20.144 463.952 68 399.264 176.384 252.768 334.96 160.144 512 160.144 689.056 160.144 847.632 252.768 956 399.264 1003.856 463.952 1003.856 560.08 956 624.752ZM907.872 452.384C807.344 307.328 662.656 224.144 510.912 224.144 359.168 224.144 214.48 307.328 113.952 452.384 90 486.944 90 537.104 113.952 571.664 214.48 716.72 359.168 799.92 510.912 799.92 662.656 799.92 807.344 716.72 907.872 571.648 931.824 537.104 931.824 486.944 907.872 452.384ZM512.32 735.824C388.608 735.824 288.32 635.536 288.32 511.824 288.32 388.112 388.608 287.824 512.32 287.824 636.032 287.824 736.32 388.112 736.32 511.824 736.32 635.536 636.032 735.824 512.32 735.824ZM512.32 351.824C423.952 351.824 352.32 423.456 352.32 511.824 352.32 600.192 423.952 671.824 512.32 671.824 600.688 671.824 672.32 600.192 672.32 511.824 672.32 423.456 600.688 351.824 512.32 351.824Z" p-id="3568"></path></svg>