<?xml version="1.0" standalone="no"?><!DOCTYPE svg PUBLIC "-//W3C//DTD SVG 1.1//EN" "http://www.w3.org/Graphics/SVG/1.1/DTD/svg11.dtd"><svg t="1569383709226" class="icon" viewBox="0 0 1024 1024" version="1.1" xmlns="http://www.w3.org/2000/svg" p-id="2732" xmlns:xlink="http://www.w3.org/1999/xlink" width="200" height="200"><defs><style type="text/css"></style></defs><path d="M893.134 893.317c-87.796 87.796-230.145 87.796-317.941 0l-95.381-95.381c-29.006-29.006-47.481-64.181-57.324-101.159 29.572-3.584 58.682-11.326 86.469-23.291 5.89 22.248 16.996 43.412 34.442 60.858l95.381 95.385c52.679 52.675 138.087 52.675 190.766 0 52.675-52.679 52.675-138.087 0-190.766l-95.385-95.381c-41.47-41.47-103.025-49.779-153.128-25.953l89.54 89.54c17.563 17.563 17.563 46.029 0 63.587-17.558 17.563-46.029 17.563-63.587 0L508.4 572.171c-87.288 57.828-206.031 48.318-282.941-28.588l-95.381-95.381c-87.796-87.796-87.796-230.145 0-317.941s230.145-87.796 317.941 0l95.381 95.381c29.006 29.006 47.486 64.181 57.324 101.159-29.572 3.584-58.682 11.326-86.469 23.291-5.89-22.248-16.996-43.412-34.442-60.858l-95.381-95.385c-52.679-52.675-138.087-52.675-190.766 0-52.675 52.679-52.675 138.087 0 190.766l95.381 95.381c41.474 41.47 103.029 49.779 153.132 25.953l-89.54-89.54c-17.563-17.558-17.563-46.029 0-63.587 17.558-17.563 46.025-17.563 63.587 0l98.587 98.587c87.287-57.827 206.036-48.318 282.941 28.588l95.381 95.381c87.794 87.794 87.794 230.144-0.001 317.939z" p-id="2733"></path></svg>