<?xml version="1.0" standalone="no"?><!DOCTYPE svg PUBLIC "-//W3C//DTD SVG 1.1//EN"
  "http://www.w3.org/Graphics/SVG/1.1/DTD/svg11.dtd">
<svg t="1572099162688" class="icon" viewBox="0 0 1000 1000" version="1.1" xmlns="http://www.w3.org/2000/svg" p-id="1176"
     xmlns:xlink="http://www.w3.org/1999/xlink" width="200" height="200">
  <defs>
    <style type="text/css"></style>
  </defs>
  <path
    d="M752.1 198.4H491.3v31.4c0 14.9-12.1 27-27 27h-27.5c-14.9 0-27-12.1-27-27v-31.4H387v31.4c0 14.9-12.1 27-27 27h-27.5c-14.9 0-27-12.1-27-27v-31.4h-33.7c-8.3 0-15 6.7-15 15V869c0 8.3 6.7 15 15 15h224l271.3-271.3V213.4c0-8.2-6.7-15-15-15z m-117 158.3c-23.2 0-42.1-18.8-42.1-42.1s18.8-42.1 42.1-42.1 42.1 18.8 42.1 42.1-18.9 42.1-42.1 42.1zM615.6 884l151.5-151.5v-77.3L538.3 884zM735.4 884l31.7-31.7V775l-109 109z"
    fill="#FFBC00" p-id="1177"></path>
  <path
    d="M752.1 168.4H491.3V137c0-14.9-12.1-27-27-27h-27.5c-14.9 0-27 12.1-27 27v31.4H387V137c0-14.9-12.1-27-27-27h-27.5c-14.9 0-27 12.1-27 27v31.4h-33.7c-24.8 0-45 20.2-45 45V869c0 24.8 20.2 45 45 45H752c24.8 0 45-20.2 45-45V213.4c0.1-24.8-20.1-45-44.9-45zM461.3 140v86.9h-21.5V140h21.5zM357 140v86.9h-21.5V140H357z m410.1 712.3L735.4 884h-77.3l109-109v77.3z m0-119.8L615.6 884h-77.3l228.8-228.8v77.3z m0-119.7L495.9 884h-224c-8.3 0-15-6.7-15-15V213.4c0-8.3 6.7-15 15-15h33.7v31.4c0 14.9 12.1 27 27 27H360c14.9 0 27-12.1 27-27v-31.4h22.8v31.4c0 14.9 12.1 27 27 27h27.5c14.9 0 27-12.1 27-27v-31.4h260.8c8.3 0 15 6.7 15 15v399.4z"
    fill="#46287C" p-id="1178"></path>
  <path d="M335.6 140h21.5v86.9h-21.5zM439.8 140h21.5v86.9h-21.5z" fill="#FFBC00" p-id="1179"></path>
  <path d="M635.1 314.6m-42.1 0a42.1 42.1 0 1 0 84.2 0 42.1 42.1 0 1 0-84.2 0Z" fill="#FFFFFF" p-id="1180"></path>
</svg>
