<svg t="1605166187170" class="icon" viewBox="0 0 924 924" version="1.1" xmlns="http://www.w3.org/2000/svg"
     p-id="30321" width="250" height="250">
  <path
    d="M512 62C263.42 62 62 263.42 62 512s201.42 450 450 450 450-201.42 450-450S760.58 62 512 62z m152.28 602.28c-10.98 10.98-25.38 16.44-39.78 16.44s-28.8-5.52-39.78-16.44L472.28 551.84c-10.2-10.08-16.5-24.12-16.5-39.66V287c0-31.14 25.14-56.28 56.28-56.28s56.28 25.14 56.28 56.28v201.72l96.06 96c21.84 21.96 21.84 57.6-0.12 79.56z"
    p-id="30322"></path>
</svg>
