<?xml version="1.0" standalone="no"?><!DOCTYPE svg PUBLIC "-//W3C//DTD SVG 1.1//EN" "http://www.w3.org/Graphics/SVG/1.1/DTD/svg11.dtd"><svg t="1572100968889" class="icon" viewBox="0 0 1024 1024" version="1.1" xmlns="http://www.w3.org/2000/svg" p-id="3501" xmlns:xlink="http://www.w3.org/1999/xlink" width="200" height="200"><defs><style type="text/css"></style></defs><path d="M460.8 461.312c-0.512 4.608-4.096 8.704-9.216 9.216-97.792 10.24-187.904 34.816-227.84-5.12-29.184-29.184-46.08-71.68-46.08-116.224s16.896-87.04 46.08-116.224c29.184-29.184 71.68-46.08 116.224-46.08s87.04 16.896 116.224 46.08c39.936 39.936 14.848 130.56 4.608 228.352zM417.28 865.792c-32.768 32.768-12.288 62.976-61.952 62.976s-96.768-18.944-129.536-51.2c-32.768-32.768-51.2-79.872-51.2-129.536 0-49.664 18.944-96.768 51.2-129.536 44.544-44.544 100.352-46.08 208.896-34.816 5.632 0.512 9.728 4.608 10.24 10.24 11.776 109.056 16.896 227.328-27.648 271.872zM577.536 590.336c0.512-5.632 4.608-9.728 10.24-10.24 109.056-11.776 242.176-7.68 286.72 36.864 32.768 32.768 51.712 80.384 51.712 130.048s-18.944 97.28-51.712 130.048c-32.768 32.768-80.384 51.712-130.048 51.712s-97.28-18.944-130.048-51.712c-45.056-44.544-48.64-177.152-36.864-286.72zM614.912 232.96c29.184-29.184 71.68-46.08 116.224-46.08s87.04 16.896 116.224 46.08c29.184 29.184 46.08 71.68 46.08 116.224s-21.504 71.168-50.688 100.352c-39.936 39.936-158.72 43.008-256.512 32.768-4.608-0.512-8.704-4.096-9.216-9.216-10.24-97.28-2.048-200.192 37.888-240.128z" fill="#38CEB1" p-id="3502"></path><path d="M873.984 860.672m-20.48 0a20.48 20.48 0 1 0 40.96 0 20.48 20.48 0 1 0-40.96 0Z" fill="#231815" p-id="3503"></path><path d="M143.36 152.064C106.496 189.44 84.992 242.176 84.992 297.472c0 55.296 20.992 108.032 58.368 145.408 20.48 20.48 71.168 50.176 190.976 50.176 28.672 0 61.44-1.536 98.304-5.632 24.064-2.56 43.008-21.504 45.568-45.568 20.48-192.512-19.456-264.192-44.544-289.792-77.312-77.312-212.992-77.312-290.304 0z m294.4 285.696c-0.512 4.608-4.096 8.704-9.216 9.216-97.792 10.24-216.576 7.168-256.512-32.768-29.184-29.184-46.08-71.68-46.08-116.224s16.896-87.04 46.08-116.224c29.184-29.184 71.68-46.08 116.224-46.08s87.04 16.896 116.224 46.08c40.448 39.424 43.52 158.208 33.28 256zM586.752 487.424c36.864 4.096 69.632 5.632 98.304 5.632 120.32 0 170.496-29.696 190.976-50.176 36.864-36.864 58.368-90.112 58.368-145.408 0-55.296-20.992-108.032-58.368-145.408-77.312-77.312-212.992-77.312-290.304 0-25.6 25.6-65.024 96.768-44.544 289.792 2.56 24.064 22.016 43.008 45.568 45.568z m28.16-306.176c29.184-29.184 71.68-46.08 116.224-46.08s87.04 16.896 116.224 46.08c29.184 29.184 46.08 71.68 46.08 116.224s-16.896 87.04-46.08 116.224c-39.936 39.936-158.72 43.008-256.512 32.768-4.608-0.512-8.704-4.096-9.216-9.216-9.728-97.28-6.656-216.064 33.28-256zM433.152 550.4c-193.024-20.48-264.192 19.456-289.792 44.544-36.864 36.864-58.368 90.112-58.368 145.408 0 55.296 20.992 108.032 58.368 145.408 38.912 38.912 92.16 57.856 145.408 57.856s106.496-19.456 145.408-57.856c25.6-25.6 65.024-96.768 44.544-289.792-2.56-24.064-22.016-43.52-45.568-45.568z m-28.16 306.176c-29.184 29.184-71.68 46.08-116.224 46.08s-87.04-16.896-116.224-46.08c-29.184-29.184-46.08-71.68-46.08-116.224s16.896-87.04 46.08-116.224c28.16-28.16 94.208-37.888 164.864-37.888 30.72 0 61.952 2.048 91.648 5.12 4.608 0.512 8.704 4.096 9.216 9.216 9.728 97.28 6.656 215.552-33.28 256zM876.544 594.944c-25.6-25.6-96.768-65.024-289.792-44.544-24.064 2.56-43.008 21.504-45.568 45.568-20.48 192.512 19.456 264.192 44.544 289.792 37.888 37.888 91.648 57.856 145.92 57.856 32.768 0 65.536-7.168 95.232-22.528 10.24-5.12 14.336-17.408 9.216-27.648-5.12-10.24-17.408-14.336-27.648-9.216-63.488 32.256-145.408 20.48-193.536-28.16-39.936-39.936-43.008-158.72-32.768-256.512 0.512-4.608 4.096-8.704 9.216-9.216 97.792-10.24 216.576-7.168 256.512 32.768 41.984 41.984 57.344 111.104 37.376 171.008-3.584 10.752 2.048 22.528 12.8 26.112 10.752 3.584 22.528-2.048 26.112-12.8 24.576-75.264 6.144-158.72-47.616-212.48z" fill="#231815" p-id="3504"></path></svg>