<svg t="1605166541582" class="icon" viewBox="0 0 924 924" version="1.1" xmlns="http://www.w3.org/2000/svg"
     p-id="31058" width="250" height="250">
  <path
    d="M512.546 647.695a97.15 97.15 0 0 1-4.33 4.044c9.301 51.765-6.041 107.089-46.05 147.098l-67.173 67.173c-64.924 64.924-170.184 64.924-235.108 0s-64.924-170.184 0-235.108l67.173-67.173c40.007-40.007 95.33-55.35 147.094-46.051a96.09 96.09 0 0 1 4.045-4.332l34.657-34.657c-74.495-25.03-160.042-7.889-219.383 51.452l-67.173 67.173c-83.475 83.472-83.475 218.809 0 302.281 83.472 83.472 218.809 83.472 302.281 0l67.173-67.173c59.341-59.342 76.481-144.89 51.45-219.385l-34.656 34.658z m386.249-520.596c-83.472-83.472-218.809-83.472-302.283 0l-67.173 67.173c-59.34 59.34-76.48 144.888-51.451 219.384l34.658-34.658a96.61 96.61 0 0 1 4.331-4.045c-9.299-51.764 6.044-107.086 46.051-147.092l67.173-67.175c64.922-64.924 170.184-64.924 235.108 0 64.922 64.924 64.922 170.184 0 235.108l-67.173 67.175c-40.008 40.007-95.333 55.348-147.098 46.048a95.978 95.978 0 0 1-4.043 4.329l-34.657 34.657c74.497 25.03 160.044 7.89 219.383-51.45l67.175-67.173c83.472-83.472 83.472-218.808-0.001-302.281zM411.786 614.106c9.274 9.277 24.31 9.277 33.587 0l167.935-167.933c9.274-9.277 9.274-24.312 0-33.586-9.277-9.274-24.315-9.274-33.587 0L411.786 580.522c-9.274 9.272-9.274 24.31 0 33.584z"
    p-id="31059"></path>
</svg>
