<svg t="1572055479349" class="icon" viewBox="0 0 1024 1024" version="1.1" xmlns="http://www.w3.org/2000/svg" p-id="3925" width="200" height="200"><path d="M699.1 90.3H182.4c-42.2 0-76.7 34.5-76.7 76.7v658.3c0 42.2 34.5 76.7 76.7 76.7h391.3c-29.3-37.7-46.9-85.1-46.9-136.7 0-123.1 99.8-222.9 222.9-222.9 8.8 0 17.5 0.6 26 1.6V166.9c0-42.1-34.5-76.6-76.6-76.6z" fill="#00B36A" p-id="3926"></path><path d="M105.7 456.9v368.3c0 42.2 34.5 76.7 76.7 76.7h391.3c-2.9-3.7-5.7-7.6-8.3-11.5-361.5-15.3-427.5-224-459.7-433.5z" fill="#009957" p-id="3927"></path><path d="M749.7 765.2m-168.5 0a168.5 168.5 0 1 0 337 0 168.5 168.5 0 1 0-337 0Z" fill="#00B36A" p-id="3928"></path><path d="M749.7 956.3c-105.4 0-191.1-85.7-191.1-191.1 0-105.4 85.7-191.1 191.1-191.1s191.1 85.7 191.1 191.1c0 105.4-85.7 191.1-191.1 191.1z m0-337.1c-80.5 0-146 65.5-146 146s65.5 146 146 146 146-65.5 146-146-65.5-146-146-146z" fill="#1A1A1A" p-id="3929"></path><path d="M749.7 765.2m-168.5 0a168.5 168.5 0 1 0 337 0 168.5 168.5 0 1 0-337 0Z" fill="#00B36A" p-id="3930"></path><path d="M699.1 67.7H182.4c-54.7 0-99.2 44.5-99.2 99.2v658.3c0 54.7 44.5 99.2 99.2 99.2h411.3c-13.7-13.4-25.6-28.6-35.5-45.1H182.4c-29.8 0-54.1-24.3-54.1-54.1V166.9c0-29.8 24.3-54.1 54.1-54.1h516.7c29.8 0 54.1 24.3 54.1 54.1v375.4c15.5 0.2 30.5 2 45.1 5.3V166.9c0-54.7-44.5-99.2-99.2-99.2z" fill="#1A1A1A" p-id="3931"></path><path d="M603.1 563.7H278.4c-29.7 0-54.1-24.3-54.1-54.1 0-29.7 24.3-54.1 54.1-54.1h324.7c29.7 0 54.1 24.3 54.1 54.1-0.1 29.7-24.4 54.1-54.1 54.1zM603.1 351.2H278.4c-29.7 0-54.1-24.3-54.1-54.1 0-29.7 24.3-54.1 54.1-54.1h324.7c29.7 0 54.1 24.3 54.1 54.1-0.1 29.8-24.4 54.1-54.1 54.1zM526.8 765.2c0-34.9 8-67.9 22.3-97.3H278.4c-29.7 0-54.1 24.3-54.1 54.1 0 29.7 24.3 54.1 54.1 54.1h248.7c-0.2-3.6-0.3-7.3-0.3-10.9zM749.7 680.2s-68.1 90.6-68.1 125.1c0 34.4 30.5 62.4 68.1 62.4s68.1-27.9 68.1-62.4c0.1-34.5-68.1-125.1-68.1-125.1z m20.1 173.1c-0.7 0.3-1.4 0.5-2.2 0.5-1.6 0-3.1-0.8-4-2.1-1.2-2-0.4-4.5 1.8-5.6 11.8-5.9 21.4-15.3 27.1-26.5 1.1-2.1 3.7-2.9 6-2 2.3 1 3.2 3.4 2.2 5.5-6.4 12.7-17.4 23.5-30.9 30.2z" fill="#1A1A1A" p-id="3932"></path></svg>
