<svg height="200" viewBox="0 0 600 600" width="200" xmlns="http://www.w3.org/2000/svg">
  <path
    d="m232.027344 497.898438h-210.207032c-4.265624 0-7.726562-3.457032-7.726562-7.722657v-468.351562c0-4.265625 3.460938-7.722657 7.726562-7.722657h468.347657c4.269531 0 7.726562 3.457032 7.726562 7.722657v212.351562c0 4.265625-3.457031 7.722657-7.726562 7.722657-4.265625 0-7.726563-3.457032-7.726563-7.722657v-204.625h-452.894531v452.894531h202.480469c4.265625 0 7.726562 3.460938 7.726562 7.726563 0 4.269531-3.460937 7.726563-7.726562 7.726563zm0 0"
    fill="#fd6096"/>
  <g fill="#3fefef">
    <path
      d="m33.441406 43.652344h-22.230468c-5.914063 0-10.710938-4.796875-10.710938-10.710938v-22.230468c0-5.914063 4.796875-10.710938 10.710938-10.710938h22.230468c5.914063 0 10.710938 4.796875 10.710938 10.710938v22.230468c0 5.914063-4.796875 10.710938-10.710938 10.710938zm0 0"/>
    <path
      d="m267.109375 43.652344h-22.230469c-5.914062 0-10.710937-4.796875-10.710937-10.710938v-22.230468c0-5.914063 4.796875-10.710938 10.710937-10.710938h22.230469c5.914063 0 10.710937 4.796875 10.710937 10.710938v22.230468c0 5.914063-4.792968 10.710938-10.710937 10.710938zm0 0"/>
    <path
      d="m500.777344 43.652344h-22.226563c-5.917969 0-10.710937-4.796875-10.710937-10.710938v-22.230468c0-5.914063 4.792968-10.710938 10.710937-10.710938h22.226563c5.917968 0 10.710937 4.796875 10.710937 10.710938v22.230468c0 5.914063-4.792969 10.710938-10.710937 10.710938zm0 0"/>
    <path
      d="m33.441406 512h-22.230468c-5.914063 0-10.710938-4.796875-10.710938-10.710938v-22.230468c0-5.914063 4.796875-10.710938 10.710938-10.710938h22.230468c5.914063 0 10.710938 4.796875 10.710938 10.710938v22.230468c0 5.914063-4.796875 10.710938-10.710938 10.710938zm0 0"/>
    <path
      d="m267.109375 512h-22.230469c-5.914062 0-10.710937-4.796875-10.710937-10.710938v-22.230468c0-5.914063 4.796875-10.710938 10.710937-10.710938h22.230469c5.914063 0 10.710937 4.796875 10.710937 10.710938v22.230468c0 5.914063-4.792968 10.710938-10.710937 10.710938zm0 0"/>
    <path
      d="m33.441406 277.824219h-22.230468c-5.914063 0-10.710938-4.792969-10.710938-10.710938v-22.226562c0-5.917969 4.796875-10.710938 10.710938-10.710938h22.230468c5.914063 0 10.710938 4.792969 10.710938 10.710938v22.226562c0 5.917969-4.796875 10.710938-10.710938 10.710938zm0 0"/>
    <path
      d="m500.777344 277.824219h-22.226563c-5.917969 0-10.710937-4.792969-10.710937-10.710938v-22.226562c0-5.917969 4.792968-10.710938 10.710937-10.710938h22.226563c5.917968 0 10.710937 4.792969 10.710937 10.710938v22.226562c0 5.917969-4.792969 10.710938-10.710937 10.710938zm0 0"/>
  </g>
  <path
    d="m490.167969 403.363281v76.101563c0 5.914062-4.792969 10.710937-10.710938 10.710937h-76.101562c-9.539063 0-14.320313-11.539062-7.574219-18.285156l76.101562-76.101563c6.75-6.75 18.285157-1.96875 18.285157 7.574219zm0 0"
    fill="#fd6096"/>
  <path
    d="m93.171875 101.382812-.007813 59.605469c-.003906 5.691407 4.609376 10.304688 10.300782 10.304688h26.128906c5.691406 0 10.304688-4.613281 10.304688-10.300781v-19.640626h92.734374v232.828126h-66.21875c-5.6875 0-10.300781 4.613281-10.300781 10.304687v26.128906c0 5.691407 4.613281 10.300781 10.300781 10.300781h179.167969c5.691407 0 10.304688-4.609374 10.304688-10.300781v-26.128906c0-5.691406-4.613281-10.304687-10.304688-10.304687h-66.214843v-232.828126h92.726562v19.640626c0 5.6875 4.609375 10.300781 10.300781 10.300781h26.128907c5.691406 0 10.304687-4.613281 10.304687-10.300781v-59.605469c0-5.691407-4.613281-10.304688-10.304687-10.304688h-305.050782c-5.691406.003907-10.300781 4.613281-10.300781 10.300781zm0 0"
    fill="#fd6096"/>
  <path
    d="m320.269531 292.515625h-5.332031c-4.265625 0-7.726562-3.457031-7.726562-7.726563 0-4.265624 3.460937-7.722656 7.726562-7.722656h5.332031c4.265625 0 7.726563 3.457032 7.726563 7.722656 0 4.269532-3.460938 7.726563-7.726563 7.726563zm0 0"
    fill="#fd6096"/>
  <path
    d="m384.515625 292.515625h-43.628906c-4.265625 0-7.726563-3.457031-7.726563-7.726563 0-4.265624 3.460938-7.722656 7.726563-7.722656h43.628906c4.269531 0 7.726563 3.457032 7.726563 7.722656 0 4.269532-3.457032 7.726563-7.726563 7.726563zm0 0"
    fill="#fd6096"/>
  <path
    d="m384.515625 318.273438h-69.578125c-4.265625 0-7.726562-3.460938-7.726562-7.726563 0-4.269531 3.460937-7.726563 7.726562-7.726563h69.578125c4.269531 0 7.726563 3.457032 7.726563 7.726563 0 4.265625-3.457032 7.726563-7.726563 7.726563zm0 0"
    fill="#fd6096"/>
  <path
    d="m384.515625 344.027344h-69.578125c-4.265625 0-7.726562-3.460938-7.726562-7.726563 0-4.269531 3.460937-7.726562 7.726562-7.726562h69.578125c4.269531 0 7.726563 3.457031 7.726563 7.726562 0 4.265625-3.457032 7.726563-7.726563 7.726563zm0 0"
    fill="#fd6096"/>
</svg>
