<svg t="1605164824243" class="icon" viewBox="0 0 924 924" version="1.1" xmlns="http://www.w3.org/2000/svg"
     p-id="12146" width="220" height="220">
  <path
    d="M482.304 635.904c4.096 0 13.312-4.096 13.312-4.096l43.008-43.008c4.096-4.096 4.096-8.192 4.096-13.312 0-13.312-8.192-21.504-21.504-21.504-4.096 0-13.312 4.096-13.312 4.096l-43.008 43.008C460.8 606.208 460.8 610.304 460.8 614.4 460.8 626.688 468.992 635.904 482.304 635.904zM230.4 303.104c-33.792 0-59.392 29.696-59.392 64.512s25.6 59.392 59.392 59.392 64.512-29.696 64.512-64.512C294.912 332.8 264.192 303.104 230.4 303.104zM230.4 388.096c-13.312 0-21.504-8.192-21.504-21.504 0-13.312 8.192-21.504 21.504-21.504 13.312 0 21.504 8.192 21.504 21.504C251.904 379.904 242.688 388.096 230.4 388.096zM413.696 183.296c-4.096-4.096-8.192-4.096-17.408-4.096L106.496 179.2c-33.792 0-63.488 25.6-63.488 64.512l0 289.792c0 4.096 4.096 13.312 4.096 13.312l417.792 417.792c4.096 4.096 8.192 4.096 13.312 4.096s13.312-4.096 13.312-4.096l332.8-332.8c4.096-4.096 4.096-8.192 4.096-13.312s-4.096-13.312-4.096-13.312L413.696 183.296zM482.304 921.6 84.992 525.312 84.992 303.104l0-4.096 0-55.296c0-13.312 8.192-21.504 21.504-21.504l59.392 0 4.096 0 222.208 0 396.288 397.312L482.304 921.6zM955.392 478.208 537.6 59.392c-4.096-4.096-8.192-4.096-13.312-4.096L230.4 55.296c-33.792 0-59.392 25.6-59.392 59.392 0 13.312 8.192 21.504 21.504 21.504 13.312 0 21.504-8.192 21.504-21.504s8.192-21.504 21.504-21.504l281.6 0 397.312 396.288-47.104 47.104c-4.096 4.096-4.096 8.192-4.096 13.312 0 13.312 8.192 21.504 21.504 21.504 4.096 0 13.312-4.096 13.312-4.096l64.512-64.512c4.096-4.096 4.096-8.192 4.096-13.312C960.512 486.4 960.512 482.304 955.392 478.208zM482.304 801.792c4.096 0 13.312-4.096 13.312-4.096l84.992-84.992c4.096-4.096 4.096-8.192 4.096-13.312 0-12.288-8.192-21.504-21.504-21.504-4.096 0-13.312 4.096-13.312 4.096L464.896 768C460.8 772.096 460.8 776.192 460.8 780.288 460.8 793.6 468.992 801.792 482.304 801.792zM375.808 699.392c0 13.312 8.192 21.504 21.504 21.504 4.096 0 13.312-4.096 13.312-4.096l21.504-21.504c4.096-4.096 4.096-8.192 4.096-13.312 0-13.312-8.192-21.504-21.504-21.504-4.096 0-13.312 4.096-13.312 4.096l-17.408 17.408C379.904 687.104 375.808 695.296 375.808 699.392z"
    p-id="12147"></path>
</svg>
