<svg t="1572056496643" class="icon" viewBox="0 0 1000 1000" version="1.1" xmlns="http://www.w3.org/2000/svg" p-id="8494"
     width="200" height="200">
  <path
    d="M924.604 652.741c-8.657 14.045-19.995 28.969-34.799 42.708C907.114 680.514 915 668.283 915 668.283V814H100V584.302s1.919-3.974 5.316-10.56c-2.923 4.009-5.316 7.276-6.316 9.566V818h826V652.121c0 0.207-0.268 0.413-0.396 0.62z"
    fill="#53AFFD" p-id="8495"></path>
  <path
    d="M775.368 745.783c-8.774 0.937-17.964 1.441-27.604 1.441-39.155 0-75.216-7.109-107.343-21.134 24.504 13.482 54.804 22.814 91.806 22.814 15.477 0 29.833-1.136 43.141-3.121zM131.466 495.698c24.359-21.467 50.47-38.599 77.807-50.922 34.444-15.525 70.653-23.397 107.72-23.397 66.907 0 127.417 26.807 175.037 77.523 35.605 37.919 51.425 75.721 52.082 77.312l0.312 0.772 0.237 0.8c0.093 0.301 10.913 34.815 41.447 68.596 40.337 44.625 94.725 67.252 161.656 67.252 66.244 0 116.132-26.417 148.243-78.517C918.485 598.647 924 562.194 925 556.373V190H99v338.411c9-10.208 19.688-21.452 32.466-32.713z m584.837-209.863c58.124 0 105.243 47.119 105.243 105.243 0 58.124-47.119 105.243-105.243 105.243-58.124 0-105.243-47.119-105.243-105.243-0.001-58.124 47.118-105.243 105.243-105.243z"
    fill="#53AFFD" p-id="8496"></path>
  <path
    d="M959 187.913C959 170.288 944.712 156 927.087 156H96.913C79.288 156 65 170.288 65 187.913v631.175C65 836.712 79.288 851 96.913 851h830.175C944.712 851 959 836.712 959 819.087V187.913zM99 818V583.308c1-2.29 3.529-5.557 6.452-9.566 9.37-12.852 25.809-33.312 48.918-53.541 49.445-43.283 104.126-65.23 162.623-65.23 57.831 0 108.201 22.236 149.761 66.091 29.534 31.165 44.095 62.936 46.073 67.43 2.167 6.668 14.95 42.956 47.286 79.213 20.612 23.111 44.966 41.534 72.393 54.758 2.61 1.259 5.25 2.464 7.915 3.627 32.127 14.025 68.187 21.134 107.342 21.134 9.64 0 18.83-0.504 27.604-1.441 51.363-5.487 88.21-26.058 114.37-50.335 14.805-13.739 26.209-28.662 34.866-42.708 0.128-0.207 0.396-0.413 0.396-0.62V818H99z m826-628v366.373c-1 5.821-6.516 42.275-28.993 78.743-32.111 52.1-81.991 78.517-148.234 78.517-66.931 0-121.325-22.627-161.662-67.252-30.534-33.781-41.358-68.295-41.451-68.596l-0.241-0.8-0.319-0.772c-0.657-1.591-16.49-39.392-52.095-77.312-47.62-50.716-108.155-77.523-175.062-77.523-37.067 0-73.327 7.872-107.771 23.397-27.337 12.322-53.346 29.455-77.706 50.922C118.688 506.959 108 518.203 99 528.411V190h826z"
    fill="" p-id="8497"></path>
  <path
    d="M100 814h815V668.283s-7.896 12.232-25.204 27.166c-26.16 24.277-63.036 44.848-114.399 50.335-13.308 1.984-27.678 3.121-43.155 3.121-37.002 0-67.309-9.333-91.814-22.814a231.492 231.492 0 0 1-7.92-3.627c-27.427-13.224-51.786-31.647-72.398-54.758-32.336-36.257-45.127-72.545-47.293-79.213-1.978-4.494-16.553-36.265-46.087-67.43-41.56-43.855-91.956-66.091-149.787-66.091-58.497 0-113.229 21.947-162.674 65.23-23.109 20.229-39.786 40.689-49.156 53.541-3.397 6.586-5.112 10.56-5.112 10.56V814z"
    fill="#1083EA" p-id="8498"></path>
  <path d="M716.303 391.078m-105.243 0a105.243 105.243 0 1 0 210.486 0 105.243 105.243 0 1 0-210.486 0Z" fill="#F9F455"
        p-id="8499"></path>
</svg>
