<svg t="1572056535742" class="icon" viewBox="0 0 1000 1000" version="1.1" xmlns="http://www.w3.org/2000/svg" p-id="9389"
     width="200" height="200">
  <path
    d="M847.36 230.4v564.224H179.712V230.4H847.36m47.616-102.4h-762.88a54.784 54.784 0 0 0-54.784 54.784V842.24a54.784 54.784 0 0 0 54.784 54.784h762.88A54.784 54.784 0 0 0 949.76 842.24V182.784A54.784 54.784 0 0 0 894.976 128z"
    fill="#4C4C4C" p-id="9390"></path>
  <path d="M664.32 408.064m-76.544 0a76.544 76.544 0 1 0 153.088 0 76.544 76.544 0 1 0-153.088 0Z" fill="#FCC53A"
        p-id="9391"></path>
  <path
    d="M465.408 400.896L622.848 673.28a11.264 11.264 0 0 1-9.728 16.896H298.496a11.264 11.264 0 0 1-9.728-16.896l157.44-272.64a11.264 11.264 0 0 1 19.2 0.256z"
    fill="#FCC53A" p-id="9392"></path>
</svg>
