<svg t="1605165031797" class="icon" viewBox="0 0 924 1024" version="1.1" xmlns="http://www.w3.org/2000/svg"
     p-id="23026" width="250" height="250">
  <path
    d="M572.1 423.4l-48.8 48.8c52.2 52.2 52.2 137 0 189.2L364.7 820c-52.2 52.2-137 52.2-189.2 0-52.2-52.2-52.2-137 0-189.2l92.5-92.5-48.8-48.8-92.5 92.5c-79 79-79 207.7 0 286.7 39.6 39.6 91.4 59.3 143.4 59.3 51.9 0 103.8-19.7 143.3-59.3L572 710.1c79.2-79 79.2-207.6 0.1-286.7z"
    p-id="23027"></path>
  <path
    d="M439.9 555.7c-52.2-52.2-52.2-137 0-189.2l158.6-158.6c52.3-52.2 137.1-52.1 189.2 0 52.2 52.2 52.2 137 0 189.2l-92.5 92.5 48.8 48.8 92.5-92.5c79-79 79-207.7 0-286.7-79.1-79-207.6-79.2-286.7 0L391.1 317.7c-79 79-79 207.7 0 286.7l48.8-48.7zM954.6 710.9l-48.8-48.8-113.6 113.6-113.6-113.6-48.8 48.8 113.6 113.6-113.6 113.6 48.8 48.8 113.6-113.6 113.6 113.6 48.8-48.8L841 824.5z"
    p-id="23028"></path>
</svg>
